<svg width="20" height="20" viewBox="0 0 20 20" fill="none" xmlns="http://www.w3.org/2000/svg">
  <path fill-rule="evenodd" clip-rule="evenodd" d="M0 10C0 15.5229 4.47716 20 10 20C15.5228 20 20 15.5229 20 10C20 4.47714 15.5228 0 10 0C4.47716 0 0 4.47714 0 10ZM18 10C18 14.4183 14.4183 18 10 18C5.58173 18 2 14.4183 2 10C2 5.58173 5.58173 2 10 2C14.4183 2 18 5.58173 18 10ZM9.00101 5V12H11.001V5H9.00101ZM11.001 14.5C11.001 15.0523 10.5533 15.5 10.001 15.5C9.44872 15.5 9.00101 15.0523 9.00101 14.5C9.00101 13.9477 9.44872 13.5 10.001 13.5C10.5533 13.5 11.001 13.9477 11.001 14.5Z" fill="black"/>
  <mask id="mask0" mask-type="alpha" maskUnits="userSpaceOnUse" x="0" y="0" width="20" height="20">
    <path fill-rule="evenodd" clip-rule="evenodd" d="M0 10C0 15.5229 4.47716 20 10 20C15.5228 20 20 15.5229 20 10C20 4.47714 15.5228 0 10 0C4.47716 0 0 4.47714 0 10ZM18 10C18 14.4183 14.4183 18 10 18C5.58173 18 2 14.4183 2 10C2 5.58173 5.58173 2 10 2C14.4183 2 18 5.58173 18 10ZM9.00101 5V12H11.001V5H9.00101ZM11.001 14.5C11.001 15.0523 10.5533 15.5 10.001 15.5C9.44872 15.5 9.00101 15.0523 9.00101 14.5C9.00101 13.9477 9.44872 13.5 10.001 13.5C10.5533 13.5 11.001 13.9477 11.001 14.5Z" fill="white"/>
  </mask>
  <g mask="url(#mask0)">
    <rect x="-2" y="-2" width="24" height="24" fill="#CC0000"/>
    <mask id="mask1" mask-type="alpha" maskUnits="userSpaceOnUse" x="-2" y="-2" width="24" height="24">
      <rect x="-2" y="-2" width="24" height="24" fill="white"/>
    </mask>
    <g mask="url(#mask1)"></g>
  </g>
</svg>
