<svg width="318" height="36" viewBox="0 0 318 36" fill="none" xmlns="http://www.w3.org/2000/svg">
  <path fill-rule="evenodd" clip-rule="evenodd" d="M268.2 8.82345H269.184L269.624 10.3304C269.76 10.7654 269.964 11.6361 269.964 11.6361H269.997C269.997 11.6361 270.201 10.7654 270.337 10.3304L270.777 8.82345H271.761V12.2711H271.15V11.0324C271.15 10.3974 271.185 9.45889 271.185 9.45889H271.15C271.15 9.45889 270.947 10.2295 270.709 10.9663L270.303 12.2711H269.658L269.252 10.9663C269.014 10.2295 268.811 9.45889 268.811 9.45889H268.776C268.776 9.45889 268.811 10.3974 268.811 11.0324V12.2711H268.2V8.82345ZM264.708 8.82345H267.556V9.39233H266.471V12.2711H265.793V9.39233H264.708V8.82345ZM254.943 20.7415L252.637 23.1523V29.2459H248.805V5.30801H252.637V18.9344L259.217 12.004H263.76L257.588 18.3982L264.234 29.2459H259.929L254.943 20.7415ZM241.109 14.8493H241.212C242.263 13.0078 243.687 11.8696 245.856 11.8696C246.366 11.8696 246.67 11.904 246.942 12.004V15.4516H246.84C246.603 15.3855 246.297 15.352 245.925 15.352C243.279 15.352 241.212 17.1261 241.212 20.4071V29.2459H237.38V12.004H241.109V14.8493ZM229.922 23.0527V20.3409C229.074 20.842 227.751 21.1782 226.496 21.4444C223.988 21.981 222.496 22.4495 222.496 24.4575C222.496 26.3337 223.783 26.9026 225.412 26.9026C228.429 26.9026 229.922 24.8598 229.922 23.0527ZM229.887 27.0369C228.903 28.3752 227.378 29.6147 224.462 29.6147C221.072 29.6147 218.596 27.9068 218.596 24.5588C218.596 20.6415 221.749 19.5699 225.751 19.0006C228.395 18.5987 229.853 18.3655 229.853 16.8251C229.853 15.352 228.666 14.4478 226.565 14.4478C224.224 14.4478 223.106 15.352 223.004 17.3609H219.376C219.478 14.2138 221.681 11.6361 226.53 11.6361C231.244 11.6361 233.652 13.5441 233.652 17.5945V25.1277C233.652 26.3663 233.923 26.9026 235.143 26.6681H235.246V29.112C234.872 29.3121 234.364 29.4808 233.483 29.4808C231.346 29.4808 230.226 28.7775 229.922 27.0369H229.887ZM191.674 12.004H195.405V14.3813H195.507C196.489 12.7742 198.253 11.5682 200.592 11.5682C202.763 11.5682 204.492 12.7395 205.306 14.6161H205.373C206.526 12.7069 208.46 11.5682 210.663 11.5682C214.088 11.5682 216.225 13.7789 216.225 17.4614V29.2459H212.359V17.9633C212.359 15.9209 211.172 14.8162 209.476 14.8162C207.408 14.8162 205.848 16.4906 205.848 18.9344V29.2459H202.016V17.9633C202.016 15.9209 200.932 14.8162 199.203 14.8162C197.201 14.8162 195.507 16.4906 195.507 18.9344V29.2459H191.674V12.004ZM176.247 18.9671H185.131C184.995 16.2554 183.368 14.5148 180.859 14.5148C178.078 14.5148 176.653 16.3567 176.247 18.9671ZM172.348 20.6415C172.348 15.5521 175.771 11.5682 180.824 11.5682C186.25 11.5682 189.166 15.6865 189.166 21.6466H176.179C176.45 24.6593 178.144 26.7343 181.13 26.7343C183.096 26.7343 184.418 25.8636 185.03 24.3575H188.793C188.08 27.4375 185.334 29.7487 181.13 29.7487C175.535 29.7487 172.348 25.697 172.348 20.6415ZM166.244 14.8493H166.346C167.397 13.0078 168.822 11.8696 170.991 11.8696C171.501 11.8696 171.804 11.904 172.076 12.004V15.4516H171.975C171.737 15.3855 171.432 15.352 171.06 15.352C168.414 15.352 166.346 17.1261 166.346 20.4071V29.2459H162.514V12.004H166.244V14.8493ZM155.055 23.0527V20.3409C154.209 20.842 152.886 21.1782 151.632 21.4444C149.122 21.981 147.629 22.4495 147.629 24.4575C147.629 26.3337 148.919 26.9026 150.546 26.9026C153.564 26.9026 155.055 24.8598 155.055 23.0527ZM155.022 27.0369C154.039 28.3752 152.512 29.6147 149.596 29.6147C146.204 29.6147 143.73 27.9068 143.73 24.5588C143.73 20.6415 146.884 19.5699 150.885 19.0006C153.53 18.5987 154.988 18.3655 154.988 16.8251C154.988 15.352 153.801 14.4478 151.698 14.4478C149.36 14.4478 148.239 15.352 148.138 17.3609H144.51C144.611 14.2138 146.815 11.6361 151.664 11.6361C156.379 11.6361 158.785 13.5441 158.785 17.5945V25.1277C158.785 26.3663 159.057 26.9026 160.279 26.6681H160.379V29.112C160.007 29.3121 159.498 29.4808 158.616 29.4808C156.479 29.4808 155.361 28.7775 155.055 27.0369H155.022ZM125.861 20.6415C125.861 15.5521 129.185 11.5682 134.441 11.5682C138.814 11.5682 141.561 14.0464 142.172 17.7284H138.373C138.035 15.8874 136.645 14.6488 134.576 14.6488C131.388 14.6488 129.761 17.1261 129.761 20.6415C129.761 24.123 131.355 26.6347 134.543 26.6347C136.815 26.6347 138.272 25.4287 138.544 23.1862H142.273C141.969 27.0369 139.12 29.7487 134.61 29.7487C129.219 29.7487 125.861 25.7305 125.861 20.6415ZM10.3419 0.0386124C9.24541 0.0386124 8.1498 0.451357 7.31324 1.28019L1.25132 7.26498C-0.417971 8.91345 -0.417971 11.5967 1.25725 13.2489L18.3648 30.1405L35.4719 13.2489C37.1467 11.5975 37.1425 8.91764 35.4685 7.26498L29.4109 1.28354C28.5747 0.453031 27.4791 0.0394496 26.3852 0.0394496C25.2845 0.0394496 24.1863 0.45638 23.346 1.2894L18.3648 6.20801L13.376 1.28271C12.5395 0.453031 11.4409 0.0386124 10.3419 0.0386124ZM66.7297 0.800476H76.1862L81.0495 19.2429L86.2587 0.800476H95.3671L85.6418 29.3401H76.4173L66.7297 0.800476ZM68.6985 18.2525C68.1965 25.7589 63.1797 30.1405 54.8812 30.1405C45.6575 30.1405 40.023 24.3495 40.023 15.0895C40.023 5.7534 45.6965 9.91821e-05 54.6883 9.91821e-05C63.064 9.91821e-05 68.0044 4.19201 68.5442 11.5837H59.7059C59.4358 8.68698 57.7754 7.16284 54.804 7.16284C51.1767 7.16284 49.3616 9.79294 49.3616 15.0895C49.3616 20.2723 51.3311 22.9777 55.075 22.9777C57.8929 22.9777 59.6669 21.3 59.9383 18.2525H68.6985ZM102.777 20.4242C103.24 22.5583 104.476 23.3201 107.022 23.3201C109.261 23.3201 110.496 22.5198 110.496 21.2623C110.496 19.4715 108.838 19.3187 105.402 18.4426C101.388 17.4145 98.8025 16.5375 97.6055 15.6986C95.3672 14.1368 94.2865 11.9261 94.2865 9.10726C94.2865 3.5821 98.6871 9.91821e-05 106.366 9.91821e-05C113.815 9.91821e-05 118.215 3.23926 118.717 8.99256H109.955C109.648 7.27754 108.451 6.47759 106.212 6.47759C104.243 6.47759 103.279 7.12517 103.279 8.42117C103.279 9.94615 104.784 10.2124 107.563 10.9361C111.152 11.8516 114.008 12.4226 115.823 13.6416C118.369 15.3177 119.527 17.3755 119.527 20.3104C119.527 26.5208 115.012 30.1405 106.637 30.1405C98.8792 30.1405 94.3246 26.5208 93.7458 20.4242H102.777Z" fill="#CC0000"/>
</svg>
